HIERARCHY
ROOT hip
{
	OFFSET 0.000000 0.000000 0.000000 
	CHANNELS 6 Xposition Yposition Zposition Zrotation Xrotation Yrotation
	JOINT abdomen
	{
		OFFSET 0.000000 3.402643 0.000000 
		CHANNELS 3 Zrotation Xrotation Yrotation
		JOINT chest
		{
			OFFSET 0.000000 8.438565 -0.680529 
			CHANNELS 3 Zrotation Xrotation Yrotation
			JOINT neck
			{
				OFFSET 0.000000 10.207942 -0.272212 
				CHANNELS 3 Zrotation Xrotation Yrotation
				JOINT head
				{
					OFFSET 0.000000 3.130431 0.000000 
					CHANNELS 3 Zrotation Xrotation Yrotation
					End Site
					{
						OFFSET 0.000000 3.130435 0.000000 
					}
				}
			}
			JOINT lCollar
			{
				OFFSET 3.470700 6.669187 -0.816635 
				CHANNELS 3 Zrotation Xrotation Yrotation
				JOINT lShldr
				{
					OFFSET 3.198488 0.000000 0.000000 
					CHANNELS 3 Zrotation Xrotation Yrotation
					JOINT lForeArm
					{
						OFFSET 10.139888 0.000000 0.000000 
						CHANNELS 3 Zrotation Xrotation Yrotation
						JOINT lHand
						{
							OFFSET 8.370511 0.000000 0.000000 
							CHANNELS 3 Zrotation Xrotation Yrotation
							End Site
							{
								OFFSET 4.083176 0.000000 0.000000 
							}
						}
					}
				}
			}
			JOINT rCollar
			{
				OFFSET -3.470700 6.669187 -0.816635 
				CHANNELS 3 Zrotation Xrotation Yrotation
				JOINT rShldr
				{
					OFFSET -3.198488 0.000000 0.000000 
					CHANNELS 3 Zrotation Xrotation Yrotation
					JOINT rForeArm
					{
						OFFSET -10.139888 0.000000 0.000000 
						CHANNELS 3 Zrotation Xrotation Yrotation
						JOINT rHand
						{
							OFFSET -8.370511 0.000000 0.000000 
							CHANNELS 3 Zrotation Xrotation Yrotation
							End Site
							{
								OFFSET -4.083176 0.000000 0.000000 
							}
						}
					}
				}
			}
		}
	}
	JOINT lThigh
	{
		OFFSET 5.308129 -1.633274 1.361059 
		CHANNELS 3 Zrotation Xrotation Yrotation
		JOINT lShin
		{
			OFFSET -2.041588 -20.007561 0.000000 
			CHANNELS 3 Zrotation Xrotation Yrotation
			JOINT lFoot
			{
				OFFSET 0.000000 -19.190928 -1.224953 
				CHANNELS 3 Zrotation Xrotation Yrotation
				End Site
				{
					OFFSET 0.000000 -2.449906 4.627600 
				}
			}
		}
	}
	JOINT rThigh
	{
		OFFSET -5.308129 -1.633274 1.361059 
		CHANNELS 3 Zrotation Xrotation Yrotation
		JOINT rShin
		{
			OFFSET 2.041588 -20.007561 0.000000 
			CHANNELS 3 Zrotation Xrotation Yrotation
			JOINT rFoot
			{
				OFFSET 0.000000 -19.190928 -1.224953 
				CHANNELS 3 Zrotation Xrotation Yrotation
				End Site
				{
					OFFSET 0.000000 -2.449906 4.627600 
				}
			}
		}
	}
}
MOTION
Frames: 13
Frame Time: 0.033333
0.658799 44.822937 -3.959485 -0.293129 -1.894506 -2.060522 -0.000000 -0.000002 -0.000000 1.109088 9.539267 -14.246325 -3.467029 0.662846 17.764181 -0.954937 -15.993991 -0.145955 -2.000757 -0.069240 1.990978 -75.138542 -12.904046 -19.154179 4.028156 9.274472 -45.251358 -20.665247 8.953539 1.136902 1.990970 -0.069577 -2.000746 73.884827 5.011210 21.247236 -10.749035 10.324417 48.628017 20.653629 -6.958658 1.928273 17.653091 -26.409815 16.202686 -16.781519 58.619942 10.555182 0.898698 -26.764624 -5.181145 -12.550062 -22.860861 1.894314 29.697218 55.195667 -13.925756 -13.799809 -37.451889 -17.594334 
0.649234 38.038101 -5.018443 -0.166109 -1.914055 -1.655939 -0.000000 -0.000002 -0.000000 2.750731 17.920109 -14.733236 -2.398199 -9.786511 17.404226 -0.954937 -15.993991 -0.145955 -2.000757 -0.069240 1.990978 -76.611298 -14.057390 -50.033134 5.838159 6.017528 -81.030952 -20.526459 9.763829 2.814233 1.990970 -0.069577 -2.000746 74.647995 -1.585310 44.943745 -14.475387 2.325335 83.075462 20.247803 -6.162031 0.216093 24.810230 -39.866047 20.192621 -60.656544 78.240402 52.504467 3.537850 -35.980350 -4.388457 -17.903399 -36.606224 -0.085742 78.011055 70.295341 -58.049805 -20.225084 -47.595554 -22.029066 
0.639668 33.235039 -6.077408 -0.029314 -1.933593 -1.211927 -0.000000 -0.000002 -0.000000 3.814075 23.176659 -15.194381 -1.402265 -17.426743 17.480427 -0.954937 -15.993991 -0.145955 -2.000757 -0.069240 1.990978 -77.073639 -14.899400 -69.777962 5.796182 3.493600 -104.937492 -20.417355 10.574261 4.500409 1.990970 -0.069577 -2.000746 76.310387 -5.779134 59.952789 -14.078732 -3.662371 106.079483 19.861629 -5.359549 -1.481085 30.878468 -48.903111 24.518045 -125.822342 77.000740 116.686264 5.163180 -39.111164 -3.362322 -22.370928 -45.617538 -2.384583 118.870598 67.806236 -96.695862 -23.674549 -51.946877 -24.938982 
0.620332 33.921310 -6.289930 0.107484 -1.953122 -0.767821 -0.000000 -0.000002 -0.000000 3.283301 21.403547 -15.076278 -0.717932 -17.791660 17.847031 -0.954937 -15.993991 -0.145955 -2.000757 -0.069240 1.990978 -75.892403 -16.170919 -65.316566 5.816033 3.553413 -104.299522 -20.327173 11.401056 6.177036 1.990970 -0.069577 -2.000746 73.874557 -5.865116 55.710861 -14.105042 -3.598496 105.813141 19.494928 -4.534079 -3.174006 29.776598 -47.888348 23.821701 -117.483429 78.147163 108.494278 5.005694 -38.182930 -3.891232 -21.619181 -44.651478 -2.084913 114.228561 68.655312 -92.361000 -23.596914 -51.005821 -25.314445 
0.595669 43.518871 -5.604601 0.254057 -1.972636 -0.293989 -0.000000 -0.000002 -0.000000 0.986922 11.590125 -14.534075 -0.593903 -9.394034 18.242830 -0.954937 -15.993991 -0.145955 -2.000757 -0.069240 1.990978 -72.685112 -13.616383 -37.699257 5.844481 6.010438 -81.099251 -20.258970 12.221466 7.864875 1.990970 -0.069577 -2.000746 70.917328 -1.024743 32.535156 -14.517450 2.039308 84.182465 19.167938 -3.698436 -4.863669 19.024879 -33.000408 17.432823 -21.751162 64.429237 15.014765 1.761148 -17.684977 -6.645261 -16.393301 -34.643452 0.186910 48.946541 65.270706 -30.907122 -5.342043 -20.173512 -15.184345 
0.575288 52.521233 -4.869774 0.400633 -1.992139 0.170177 -0.000000 -0.000002 -0.000000 -1.591866 -0.536900 -14.389920 -0.908944 2.314159 18.581631 -0.954937 -15.993991 -0.145955 -2.000757 -0.069240 1.990978 -68.859276 -10.106608 -0.734048 4.187990 9.127528 -47.246269 -20.223553 13.035514 9.565119 1.990970 -0.069577 -2.000746 68.976593 7.863808 2.553324 -11.369403 9.605280 52.334332 18.851503 -2.863238 -6.541403 11.714508 -18.029387 14.750480 -7.230677 36.221413 3.205235 -0.863624 13.777408 -7.062600 -9.968431 -17.213732 2.175694 13.048618 33.641800 -1.881423 8.150186 13.907954 -14.293144 
0.557209 59.229362 -4.108288 0.556984 -2.011624 0.644647 -0.000000 -0.000002 -0.000000 -3.308464 -8.569888 -14.595113 -1.493680 11.275557 18.866339 -0.954937 -15.993991 -0.145955 -2.000757 -0.069240 1.990978 -66.438614 -6.450729 30.368578 1.215186 10.740685 -14.959576 -20.208487 13.860339 11.249613 1.990970 -0.069577 -2.000746 70.553398 15.553305 -22.741909 -4.964949 14.168256 21.201275 18.567135 -2.010409 -8.217983 3.979205 0.223075 14.167312 0.350432 0.287643 0.617229 -4.571843 46.046211 -4.223840 -3.996976 2.230890 2.370894 -0.412530 0.181599 2.263336 13.346758 26.502520 -15.104672 
0.539461 65.249069 -3.342995 0.703563 -2.021332 1.118687 -0.000000 -0.000002 -0.000000 -2.729320 -5.901550 -14.489935 -2.479858 12.410602 18.980135 -0.954937 -15.993991 -0.145955 -2.000757 -0.069240 1.990978 -65.871185 -6.861450 40.318031 -0.544934 10.877144 1.799915 -20.213091 14.682281 12.959471 1.990970 -0.069577 -2.000746 70.713654 17.108805 -30.101824 -0.923299 15.015296 4.914182 18.314178 -1.156135 -9.884844 8.798366 -13.308730 8.384736 -6.599272 34.031487 2.807794 -4.099960 32.600983 -1.095504 -4.232260 3.144080 2.837054 7.710103 22.605614 0.748583 17.792616 33.302750 -17.440557 
0.520067 70.267555 -2.596744 0.850148 -2.040790 1.573390 -0.000000 -0.000002 -0.000000 0.455009 9.150108 -14.427825 -5.040403 8.833437 18.451754 -0.954937 -15.993991 -0.145955 -2.000757 -0.069240 1.990978 -68.256065 -12.924836 19.688520 0.429477 10.863395 -7.358121 -20.250744 15.500377 14.665799 1.990970 -0.069577 -2.000746 67.614044 11.302063 -10.628359 -3.118667 14.694756 13.667868 18.066372 -0.287043 -11.543114 8.036987 -23.236313 1.376561 -12.832196 51.801971 7.229031 -7.160970 30.856342 3.981766 -10.237041 -16.271399 3.233639 17.151304 40.886971 -4.383404 13.792253 25.977262 -13.963724 
0.497050 71.969032 -1.892372 0.996732 -2.050471 2.018089 -0.000000 -0.000002 -0.000000 4.784709 27.622831 -15.620920 -7.694157 3.948614 16.605938 -0.954937 -15.993991 -0.145955 -2.000757 -0.069240 1.990978 -74.147934 -18.553516 -15.222879 2.933475 10.082641 -32.329819 -20.324440 16.332197 16.391830 1.990970 -0.069577 -2.000746 66.816315 5.008403 22.875471 -8.219616 12.505959 35.564434 17.860773 0.579934 -13.213581 5.863013 -37.182697 -5.331220 -41.916039 74.918663 34.147896 -9.500703 24.530104 6.469734 -16.628946 -32.577579 1.285998 62.526035 68.557503 -43.446220 11.061131 21.205181 -10.627567 
0.468437 68.717285 -1.252752 1.133546 -2.060144 2.433526 -0.000000 -0.000002 -0.000000 8.440699 39.702778 -17.542934 -9.072364 0.270012 14.779447 -0.954937 -15.993991 -0.145955 -2.000757 -0.069240 1.990978 -79.192986 -19.864878 -47.573082 5.173043 7.822390 -62.730534 -20.409925 17.151001 18.106548 1.990970 -0.069577 -2.000746 66.872757 2.031804 54.014423 -12.706244 7.621588 61.601788 17.682644 1.460595 -14.868223 3.096967 -52.461296 -11.832435 -155.742279 64.012100 145.591263 -8.869694 8.866123 3.222642 -24.465767 -44.382824 -0.263312 149.493591 53.442451 -124.316856 3.796698 1.441382 -4.255194 
0.432249 68.069885 -0.700696 1.250816 -2.069819 2.818834 -0.000000 -0.000002 -0.000000 10.219033 44.219711 -18.951691 -9.429478 -1.974926 14.252155 -0.954937 -15.993991 -0.145955 -2.000757 -0.069240 1.990978 -81.602020 -19.833208 -73.419464 5.938083 5.245584 -88.305214 -20.522064 17.958319 19.852369 1.990970 -0.069577 -2.000746 66.745461 -0.669686 77.869759 -14.519519 2.026672 84.270035 17.520123 2.337866 -16.537600 3.336812 -53.956623 -12.233934 -159.150192 59.882656 148.789978 -7.906395 5.317837 1.550483 -22.016802 -41.531097 -0.372046 123.993881 66.679581 -101.439941 8.698280 11.818097 -8.528348 
0.386514 65.087975 -0.259086 1.368089 -2.079486 3.165119 -0.000000 -0.000002 -0.000000 11.389416 46.433212 -20.257378 -9.561214 -3.707690 14.346636 -0.954937 -15.993991 -0.145955 -2.000757 -0.069240 1.990978 -84.793343 -21.161560 -100.008797 5.907166 4.148860 -98.664200 -20.656116 18.771189 21.591810 1.990970 -0.069577 -2.000746 70.189857 -9.769471 97.123421 -14.523464 -1.381977 97.219093 17.378353 3.229084 -18.184174 8.991515 -48.225117 -3.471463 -129.248856 76.402809 120.050438 -5.536691 14.471373 1.259467 -18.041983 -34.414867 1.279374 59.304863 67.967827 -40.434528 12.913740 17.261349 -13.450712 
